<svg xmlns="http://www.w3.org/2000/svg" width="225.78" height="35" viewBox="0 0 225.78 35"><rect class="svg__rect" x="0" y="0" width="96.56" height="35" fill="#A4C639"/><rect class="svg__rect" x="94.56" y="0" width="131.22" height="35" fill="#1F1F21"/><path class="svg__text" d="M15.00 22L13.46 22L16.68 13.47L18.01 13.47L21.24 22L19.69 22L18.99 20.01L15.69 20.01L15.00 22ZM17.34 15.28L16.10 18.82L18.58 18.82L17.34 15.28ZM26.67 22L25.19 22L25.19 13.47L26.67 13.47L30.49 19.54L30.49 13.47L31.96 13.47L31.96 22L30.48 22L26.67 15.95L26.67 22ZM39.15 22L36.70 22L36.70 13.47L39.22 13.47Q40.35 13.47 41.23 13.97Q42.10 14.48 42.58 15.40Q43.06 16.33 43.06 17.52L43.06 17.52L43.06 17.95Q43.06 19.16 42.58 20.08Q42.10 21.00 41.20 21.50Q40.31 22 39.15 22L39.15 22ZM38.18 14.66L38.18 20.82L39.15 20.82Q40.31 20.82 40.94 20.09Q41.56 19.36 41.57 17.99L41.57 17.99L41.57 17.52Q41.57 16.13 40.97 15.40Q40.37 14.66 39.22 14.66L39.22 14.66L38.18 14.66ZM49.01 22L47.53 22L47.53 13.47L50.53 13.47Q52.00 13.47 52.81 14.13Q53.61 14.79 53.61 16.05L53.61 16.05Q53.61 16.90 53.20 17.48Q52.78 18.06 52.05 18.37L52.05 18.37L53.96 21.92L53.96 22L52.37 22L50.66 18.71L49.01 18.71L49.01 22ZM49.01 14.66L49.01 17.52L50.53 17.52Q51.28 17.52 51.71 17.15Q52.13 16.77 52.13 16.11L52.13 16.11Q52.13 15.43 51.74 15.05Q51.35 14.68 50.57 14.66L50.57 14.66L49.01 14.66ZM57.73 18.00L57.73 18.00L57.73 17.52Q57.73 16.28 58.18 15.32Q58.62 14.37 59.43 13.86Q60.23 13.35 61.27 13.35Q62.32 13.35 63.12 13.85Q63.93 14.35 64.37 15.29Q64.81 16.23 64.81 17.48L64.81 17.48L64.81 17.96Q64.81 19.21 64.38 20.16Q63.95 21.10 63.14 21.61Q62.33 22.12 61.29 22.12L61.29 22.12Q60.25 22.12 59.44 21.61Q58.63 21.10 58.18 20.17Q57.74 19.23 57.73 18.00ZM59.22 17.46L59.22 17.96Q59.22 19.36 59.77 20.13Q60.31 20.90 61.29 20.90L61.29 20.90Q62.27 20.90 62.80 20.15Q63.33 19.40 63.33 17.96L63.33 17.96L63.33 17.51Q63.33 16.09 62.79 15.34Q62.26 14.58 61.27 14.58L61.27 14.58Q60.31 14.58 59.77 15.33Q59.23 16.09 59.22 17.46L59.22 17.46ZM70.84 22L69.37 22L69.37 13.47L70.84 13.47L70.84 22ZM78.11 22L75.65 22L75.65 13.47L78.17 13.47Q79.30 13.47 80.18 13.97Q81.06 14.48 81.54 15.40Q82.02 16.33 82.02 17.52L82.02 17.52L82.02 17.95Q82.02 19.16 81.53 20.08Q81.05 21.00 80.16 21.50Q79.26 22 78.11 22L78.11 22ZM77.14 14.66L77.14 20.82L78.10 20.82Q79.27 20.82 79.89 20.09Q80.52 19.36 80.53 17.99L80.53 17.99L80.53 17.52Q80.53 16.13 79.92 15.40Q79.32 14.66 78.17 14.66L78.17 14.66L77.14 14.66Z" fill="#FFFFFF"/><path class="svg__text" d="M112.72 22L108.75 22L108.75 13.60L112.72 13.60Q114.10 13.60 115.17 14.12Q116.24 14.63 116.83 15.58Q117.41 16.53 117.41 17.80L117.41 17.80Q117.41 19.07 116.83 20.02Q116.24 20.97 115.17 21.48Q114.10 22 112.72 22L112.72 22ZM111.13 15.50L111.13 20.10L112.63 20.10Q113.70 20.10 114.36 19.49Q115.01 18.88 115.01 17.80L115.01 17.80Q115.01 16.72 114.36 16.11Q113.70 15.50 112.63 15.50L112.63 15.50L111.13 15.50ZM128.89 22L122.14 22L122.14 13.60L128.73 13.60L128.73 15.44L124.50 15.44L124.50 16.85L128.23 16.85L128.23 18.63L124.50 18.63L124.50 20.17L128.89 20.17L128.89 22ZM136.28 22L132.68 13.60L135.26 13.60L137.53 19.07L139.86 13.60L142.21 13.60L138.61 22L136.28 22ZM153.11 22L146.37 22L146.37 13.60L152.96 13.60L152.96 15.44L148.72 15.44L148.72 16.85L152.45 16.85L152.45 18.63L148.72 18.63L148.72 20.17L153.11 20.17L153.11 22ZM164.30 22L157.91 22L157.91 13.60L160.29 13.60L160.29 20.11L164.30 20.11L164.30 22ZM168.29 17.80L168.29 17.80Q168.29 16.55 168.89 15.55Q169.50 14.56 170.56 14.00Q171.62 13.43 172.95 13.43L172.95 13.43Q174.28 13.43 175.35 14.00Q176.41 14.56 177.02 15.55Q177.62 16.55 177.62 17.80L177.62 17.80Q177.62 19.05 177.02 20.04Q176.41 21.04 175.35 21.60Q174.29 22.17 172.95 22.17L172.95 22.17Q171.62 22.17 170.56 21.60Q169.50 21.04 168.89 20.04Q168.29 19.05 168.29 17.80ZM170.69 17.80L170.69 17.80Q170.69 18.51 170.99 19.05Q171.29 19.60 171.81 19.90Q172.32 20.20 172.95 20.20L172.95 20.20Q173.59 20.20 174.11 19.90Q174.62 19.60 174.92 19.05Q175.22 18.51 175.22 17.80L175.22 17.80Q175.22 17.09 174.92 16.54Q174.62 16 174.11 15.70Q173.59 15.40 172.95 15.40L172.95 15.40Q172.32 15.40 171.80 15.70Q171.29 16 170.99 16.54Q170.69 17.09 170.69 17.80ZM184.73 22L182.35 22L182.35 13.60L186.20 13.60Q187.33 13.60 188.17 13.98Q189.02 14.35 189.47 15.06Q189.93 15.76 189.93 16.71L189.93 16.71Q189.93 17.66 189.47 18.35Q189.02 19.05 188.17 19.42Q187.33 19.80 186.20 19.80L186.20 19.80L184.73 19.80L184.73 22ZM184.73 15.47L184.73 17.93L186.05 17.93Q186.78 17.93 187.16 17.61Q187.53 17.29 187.53 16.71L187.53 16.71Q187.53 16.12 187.16 15.80Q186.78 15.47 186.05 15.47L186.05 15.47L184.73 15.47ZM201.43 22L194.68 22L194.68 13.60L201.27 13.60L201.27 15.44L197.04 15.44L197.04 16.85L200.77 16.85L200.77 18.63L197.04 18.63L197.04 20.17L201.43 20.17L201.43 22ZM208.61 22L206.23 22L206.23 13.60L210.07 13.60Q211.22 13.60 212.05 13.98Q212.89 14.35 213.35 15.06Q213.81 15.76 213.81 16.71L213.81 16.71Q213.81 17.62 213.38 18.30Q212.95 18.98 212.16 19.36L212.16 19.36L213.97 22L211.43 22L209.90 19.77L208.61 19.77L208.61 22ZM208.61 15.47L208.61 17.93L209.93 17.93Q210.66 17.93 211.03 17.61Q211.40 17.29 211.40 16.71L211.40 16.71Q211.40 16.12 211.03 15.79Q210.66 15.47 209.93 15.47L209.93 15.47L208.61 15.47Z" fill="#FFFFFF" x="107.56"/></svg>