<svg xmlns="http://www.w3.org/2000/svg" width="180.72" height="35" viewBox="0 0 180.72 35"><rect class="svg__rect" x="0" y="0" width="51.5" height="35" fill="#BDBEC2"/><rect class="svg__rect" x="49.5" y="0" width="131.22" height="35" fill="#1F1F21"/><path class="svg__text" d="M15.78 22L14.31 22L14.31 13.47L15.78 13.47L15.78 22ZM20.32 18.00L20.32 18.00L20.32 17.52Q20.32 16.28 20.77 15.32Q21.21 14.37 22.01 13.86Q22.82 13.35 23.86 13.35Q24.90 13.35 25.71 13.85Q26.52 14.35 26.96 15.29Q27.39 16.23 27.40 17.48L27.40 17.48L27.40 17.96Q27.40 19.21 26.97 20.16Q26.53 21.10 25.73 21.61Q24.92 22.12 23.87 22.12L23.87 22.12Q22.84 22.12 22.02 21.61Q21.21 21.10 20.77 20.17Q20.33 19.23 20.32 18.00ZM21.81 17.46L21.81 17.96Q21.81 19.36 22.35 20.13Q22.90 20.90 23.87 20.90L23.87 20.90Q24.86 20.90 25.39 20.15Q25.92 19.40 25.92 17.96L25.92 17.96L25.92 17.51Q25.92 16.09 25.38 15.34Q24.85 14.58 23.86 14.58L23.86 14.58Q22.90 14.58 22.36 15.33Q21.82 16.09 21.81 17.46L21.81 17.46ZM31.43 19.42L31.43 19.42L32.91 19.42Q32.91 20.15 33.39 20.55Q33.88 20.95 34.77 20.95L34.77 20.95Q35.55 20.95 35.93 20.63Q36.32 20.32 36.32 19.80L36.32 19.80Q36.32 19.24 35.93 18.94Q35.53 18.63 34.50 18.32Q33.47 18.01 32.86 17.63L32.86 17.63Q31.70 16.90 31.70 15.72L31.70 15.72Q31.70 14.69 32.54 14.02Q33.38 13.35 34.72 13.35L34.72 13.35Q35.61 13.35 36.31 13.68Q37.00 14.01 37.40 14.61Q37.80 15.22 37.80 15.96L37.80 15.96L36.32 15.96Q36.32 15.29 35.91 14.91Q35.49 14.54 34.71 14.54L34.71 14.54Q33.98 14.54 33.58 14.85Q33.18 15.16 33.18 15.71L33.18 15.71Q33.18 16.18 33.61 16.50Q34.05 16.81 35.04 17.10Q36.04 17.40 36.64 17.78Q37.24 18.16 37.53 18.65Q37.81 19.13 37.81 19.79L37.81 19.79Q37.81 20.86 36.99 21.49Q36.17 22.12 34.77 22.12L34.77 22.12Q33.85 22.12 33.07 21.77Q32.29 21.43 31.86 20.83Q31.43 20.22 31.43 19.42Z" fill="#FFFFFF"/><path class="svg__text" d="M67.66 22L63.69 22L63.69 13.60L67.66 13.60Q69.04 13.60 70.11 14.12Q71.18 14.63 71.77 15.58Q72.35 16.53 72.35 17.80L72.35 17.80Q72.35 19.07 71.77 20.02Q71.18 20.97 70.11 21.48Q69.04 22 67.66 22L67.66 22ZM66.07 15.50L66.07 20.10L67.57 20.10Q68.64 20.10 69.30 19.49Q69.95 18.88 69.95 17.80L69.95 17.80Q69.95 16.72 69.30 16.11Q68.64 15.50 67.57 15.50L67.57 15.50L66.07 15.50ZM83.83 22L77.08 22L77.08 13.60L83.67 13.60L83.67 15.44L79.44 15.44L79.44 16.85L83.17 16.85L83.17 18.63L79.44 18.63L79.44 20.17L83.83 20.17L83.83 22ZM91.22 22L87.62 13.60L90.20 13.60L92.47 19.07L94.80 13.60L97.15 13.60L93.55 22L91.22 22ZM108.05 22L101.31 22L101.31 13.60L107.90 13.60L107.90 15.44L103.66 15.44L103.66 16.85L107.39 16.85L107.39 18.63L103.66 18.63L103.66 20.17L108.05 20.17L108.05 22ZM119.24 22L112.85 22L112.85 13.60L115.23 13.60L115.23 20.11L119.24 20.11L119.24 22ZM123.23 17.80L123.23 17.80Q123.23 16.55 123.83 15.55Q124.44 14.56 125.50 14.00Q126.56 13.43 127.89 13.43L127.89 13.43Q129.22 13.43 130.29 14.00Q131.35 14.56 131.96 15.55Q132.56 16.55 132.56 17.80L132.56 17.80Q132.56 19.05 131.96 20.04Q131.35 21.04 130.29 21.60Q129.23 22.17 127.89 22.17L127.89 22.17Q126.56 22.17 125.50 21.60Q124.44 21.04 123.83 20.04Q123.23 19.05 123.23 17.80ZM125.63 17.80L125.63 17.80Q125.63 18.51 125.93 19.05Q126.23 19.60 126.75 19.90Q127.26 20.20 127.89 20.20L127.89 20.20Q128.53 20.20 129.05 19.90Q129.56 19.60 129.86 19.05Q130.16 18.51 130.16 17.80L130.16 17.80Q130.16 17.09 129.86 16.54Q129.56 16 129.05 15.70Q128.53 15.40 127.89 15.40L127.89 15.40Q127.26 15.40 126.74 15.70Q126.23 16 125.93 16.54Q125.63 17.09 125.63 17.80ZM139.67 22L137.29 22L137.29 13.60L141.14 13.60Q142.27 13.60 143.11 13.98Q143.96 14.35 144.41 15.06Q144.87 15.76 144.87 16.71L144.87 16.71Q144.87 17.66 144.41 18.35Q143.96 19.05 143.11 19.42Q142.27 19.80 141.14 19.80L141.14 19.80L139.67 19.80L139.67 22ZM139.67 15.47L139.67 17.93L140.99 17.93Q141.72 17.93 142.10 17.61Q142.47 17.29 142.47 16.71L142.47 16.71Q142.47 16.12 142.10 15.80Q141.72 15.47 140.99 15.47L140.99 15.47L139.67 15.47ZM156.37 22L149.62 22L149.62 13.60L156.21 13.60L156.21 15.44L151.98 15.44L151.98 16.85L155.71 16.85L155.71 18.63L151.98 18.63L151.98 20.17L156.37 20.17L156.37 22ZM163.55 22L161.17 22L161.17 13.60L165.01 13.60Q166.16 13.60 166.99 13.98Q167.83 14.35 168.29 15.06Q168.75 15.76 168.75 16.71L168.75 16.71Q168.75 17.62 168.32 18.30Q167.89 18.98 167.10 19.36L167.10 19.36L168.91 22L166.37 22L164.84 19.77L163.55 19.77L163.55 22ZM163.55 15.47L163.55 17.93L164.87 17.93Q165.60 17.93 165.97 17.61Q166.34 17.29 166.34 16.71L166.34 16.71Q166.34 16.12 165.97 15.79Q165.60 15.47 164.87 15.47L164.87 15.47L163.55 15.47Z" fill="#FFFFFF" x="62.5"/></svg>