<svg xmlns="http://www.w3.org/2000/svg" width="177.34" height="35" viewBox="0 0 177.34 35"><rect class="svg__rect" x="0" y="0" width="85.82000000000001" height="35" fill="#0091FF"/><rect class="svg__rect" x="83.82000000000001" y="0" width="93.52" height="35" fill="#FF8C00"/><path class="svg__text" d="M15.70 22L14.22 22L14.22 13.47L17.48 13.47Q18.91 13.47 19.75 14.21Q20.59 14.96 20.59 16.18L20.59 16.18Q20.59 17.44 19.77 18.13Q18.95 18.83 17.46 18.83L17.46 18.83L15.70 18.83L15.70 22ZM15.70 14.66L15.70 17.64L17.48 17.64Q18.27 17.64 18.69 17.27Q19.10 16.90 19.10 16.19L19.10 16.19Q19.10 15.50 18.68 15.09Q18.26 14.68 17.52 14.66L17.52 14.66L15.70 14.66ZM26.36 22L24.88 22L24.88 13.47L26.36 13.47L26.36 17.02L30.17 17.02L30.17 13.47L31.65 13.47L31.65 22L30.17 22L30.17 18.21L26.36 18.21L26.36 22ZM36.12 18.00L36.12 18.00L36.12 17.52Q36.12 16.28 36.56 15.32Q37.00 14.37 37.81 13.86Q38.62 13.35 39.66 13.35Q40.70 13.35 41.51 13.85Q42.31 14.35 42.75 15.29Q43.19 16.23 43.20 17.48L43.20 17.48L43.20 17.96Q43.20 19.21 42.76 20.16Q42.33 21.10 41.52 21.61Q40.72 22.12 39.67 22.12L39.67 22.12Q38.63 22.12 37.82 21.61Q37.01 21.10 36.57 20.17Q36.13 19.23 36.12 18.00ZM37.60 17.46L37.60 17.96Q37.60 19.36 38.15 20.13Q38.70 20.90 39.67 20.90L39.67 20.90Q40.65 20.90 41.18 20.15Q41.72 19.40 41.72 17.96L41.72 17.96L41.72 17.51Q41.72 16.09 41.18 15.34Q40.64 14.58 39.66 14.58L39.66 14.58Q38.70 14.58 38.16 15.33Q37.61 16.09 37.60 17.46L37.60 17.46ZM49.14 22L47.66 22L47.66 13.47L49.14 13.47L52.96 19.54L52.96 13.47L54.43 13.47L54.43 22L52.95 22L49.14 15.95L49.14 22ZM60.73 22L59.26 22L59.26 13.47L60.73 13.47L60.73 22ZM66.64 22L64.92 22L67.56 17.70L64.98 13.47L66.69 13.47L68.48 16.55L70.27 13.47L71.98 13.47L69.41 17.70L72.04 22L70.31 22L68.48 18.87L66.64 22Z" fill="#FAFAFA"/><path class="svg__text" d="M100.39 22L98.01 22L98.01 13.60L100.39 13.60L100.39 16.76L103.63 16.76L103.63 13.60L106.00 13.60L106.00 22L103.63 22L103.63 18.72L100.39 18.72L100.39 22ZM117.91 22L111.16 22L111.16 13.60L117.75 13.60L117.75 15.44L113.52 15.44L113.52 16.85L117.25 16.85L117.25 18.63L113.52 18.63L113.52 20.17L117.91 20.17L117.91 22ZM124.13 22L121.70 22L125.41 13.60L127.76 13.60L131.47 22L129.00 22L128.34 20.37L124.79 20.37L124.13 22ZM126.57 15.93L125.48 18.61L127.64 18.61L126.57 15.93ZM142.01 22L135.63 22L135.63 13.60L138.00 13.60L138.00 20.11L142.01 20.11L142.01 22ZM148.22 15.48L145.64 15.48L145.64 13.60L153.16 13.60L153.16 15.48L150.60 15.48L150.60 22L148.22 22L148.22 15.48ZM159.91 22L157.53 22L157.53 13.60L159.91 13.60L159.91 16.76L163.15 16.76L163.15 13.60L165.53 13.60L165.53 22L163.15 22L163.15 18.72L159.91 18.72L159.91 22Z" fill="#FAFAFA" x="96.82000000000001"/></svg>